<?xml version="1.0" encoding="iso-8859-1"?>
<!-- Generator: Adobe Illustrator 18.0.0, SVG Export Plug-In . SVG Version: 6.00 Build 0)  -->
<!DOCTYPE svg PUBLIC "-//W3C//DTD SVG 1.1//EN" "http://www.w3.org/Graphics/SVG/1.1/DTD/svg11.dtd">
<svg version="1.1" id="Capa_1" xmlns="http://www.w3.org/2000/svg" xmlns:xlink="http://www.w3.org/1999/xlink" x="0px" y="0px"
	 viewBox="0 0 242.096 242.096" style="enable-background:new 0 0 242.096 242.096;" xml:space="preserve">
<g>
	<path d="M215.442,153.226c-0.357-0.226-0.711-0.348-1.052-0.396c1.775-11.746-0.848-23.754-6.379-34.629
		c7.656-2.412,13.168-11.363,16.007-18.442c3.586-8.942,3.908-18.625,1.081-27.816c-0.053-0.174-0.186-0.259-0.255-0.417
		c0.161-0.01,0.314-0.049,0.472-0.078c0.19,2.158,2.642,3.945,4.624,2.578c16.589-11.44,13.732-40.635,5.464-56.062
		c-1.234-2.302-4.896-2.935-6.659-0.868c-5.901,6.916-10.839,14.399-15.172,22.356c-5.549-3.345-11.099-6.688-16.644-10.041
		c-2.486-1.503-5.299,0.012-6.199,2.551c-6.764,19.09,5.325,40.917,25.692,41.336c0.106,13.832-4.945,25.29-14.302,35.211
		c-7.432-10.357-17.506-19.037-28.66-24.477C130.173,62.918,70.2,69.319,40.41,108.816c-0.196,0.074-0.361,0.225-0.548,0.321
		c0.676-1.696,0.383-3.781-1.662-5.196c-8.278-5.729-13.943-14.141-15.429-23.375c-0.499-6.186,0.324-12.527,2.927-18.624
		c0.553-1.295,0.514-2.555,0.106-3.635c14.832-4.615,24.611-17.81,26.565-33.149c0.405-3.181-3.458-4.411-5.727-3.324
		c-3.906,1.872-7.811,3.744-11.716,5.616c-1.693,0.811-7.473,4.72-8.787,4.212c-4.534-1.754-2.496-16.306-2.595-20.334
		c-0.077-3.128-3.196-4.679-5.835-3.387C6.332,13.515-1.998,25.751,0.419,38.92c1.707,9.3,8.583,16.89,17.361,19.087
		c-4.674,9.691-5.234,21.412-1.935,31.742c0.21,0.746,0.555,1.44,0.802,2.173c0.436,1.14,0.778,2.316,1.314,3.408
		c3.446,8.022,9.126,15.071,17.126,19.969c-1.237,2.964-1.99,6.244-2.458,8.394c-2.229,10.236-1.636,21.25,2.733,30.801
		c0.256,0.559,0.689,0.736,1.145,0.767c0.766,1.922,1.787,3.797,2.812,5.67c-14.309,11.905-17.295,32.751-9.962,49.48
		c1.05,2.396,4.46,1.424,5.136-0.679c3.791-11.788,9.265-21.604,18.563-28.728c-7.386,13.808-6.416,30.915,2.876,44.029
		c1.392,1.965,4.557,1.363,4.622-1.266c0.281-11.464,4.13-20.686,10.512-29.317c-4.723,13.264-1.299,28.66,8.154,39.346
		c1.595,1.803,4.721,0.368,4.679-1.961c-0.247-13.876,4.848-23.236,11.674-34.09c26.072,6.448,56.873,6.797,80.69-2.178
		c6.327,9.198,9.552,19.59,9.449,30.922c-0.021,2.244,2.729,3.278,4.277,1.791c7.717-7.412,13.931-22.468,11.136-34.247
		c3.449,2.943,6.656,6.119,9.686,9.492c-0.025,0.671-0.05,1.342-0.075,2.013c-0.139,2.398,2.105,3.318,3.896,2.776
		c1.095,1.401,2.3,2.671,3.322,4.164c1.14,1.665,3.839,1.559,4.409-0.583c3.836-14.409-1.998-30.173-13.925-38.694
		c10.915,5.324,20.759,11.784,29.312,20.71c1.87,1.952,4.797-0.091,4.288-2.525C238.685,175.338,229.175,161.901,215.442,153.226z
		 M204.98,154.971c-10.418,40.369-57.314,40.383-91.083,36.964c-16.688-1.69-36.36-4.906-50.725-14.839
		c-0.968-0.669-1.79-1.377-2.691-2.064c0.073-1.479-1.17-3.08-2.881-2.521c-0.087,0.028-0.159,0.078-0.246,0.107
		C31,150.034,37.712,119.192,59.855,98.039c20.914-15.999,48.209-19.65,75.231-16.773
		C172.171,85.215,216.364,110.856,204.98,154.971z"/>
	<path d="M93.882,118.033c-1.274-3.326-5.967-2.081-5.307,1.48c0.649,3.508,0.441,6.883,3.448,9.09
		c1.522,1.117,3.289-0.166,3.862-1.589C97.114,123.962,94.983,120.906,93.882,118.033z"/>
	<path d="M160.166,118.484c-0.783-0.829-2.235-0.83-3.019,0c-2.307,2.443-2.582,6.383-1.187,9.32c0.98,2.064,4.413,2.064,5.393,0
		C162.75,124.862,162.474,120.927,160.166,118.484z"/>
</g>
<g>
</g>
<g>
</g>
<g>
</g>
<g>
</g>
<g>
</g>
<g>
</g>
<g>
</g>
<g>
</g>
<g>
</g>
<g>
</g>
<g>
</g>
<g>
</g>
<g>
</g>
<g>
</g>
<g>
</g>
</svg>
